<svg xmlns="http://www.w3.org/2000/svg" xmlns:xlink="http://www.w3.org/1999/xlink" width="1080" zoomAndPan="magnify" viewBox="0 0 810 809.999993" height="1080" preserveAspectRatio="xMidYMid meet" version="1.0"><defs><g/><clipPath id="fd8f89270b"><path d="M 385 218 L 552 218 L 552 367 L 385 367 Z M 385 218 " clip-rule="nonzero"/></clipPath><clipPath id="94be3bd416"><path d="M 373.71875 235.347656 L 551.4375 218.65625 L 563.851562 350.824219 L 386.132812 367.515625 Z M 373.71875 235.347656 " clip-rule="nonzero"/></clipPath><clipPath id="d816d17b57"><path d="M 373.71875 235.347656 L 551.4375 218.65625 L 563.851562 350.824219 L 386.132812 367.515625 Z M 373.71875 235.347656 " clip-rule="nonzero"/></clipPath><clipPath id="f1cbc15af8"><path d="M 373.722656 235.371094 L 551.773438 218.648438 L 564.164062 350.570312 L 386.113281 367.292969 Z M 373.722656 235.371094 " clip-rule="nonzero"/></clipPath></defs><g fill="#dfe0e1" fill-opacity="1"><g transform="translate(74.574745, 517.894615)"><g><path d="M 42.453125 -36.5625 L 42.453125 0 L 36.453125 0 L 36.453125 -25.046875 L 25.3125 0 L 21.15625 0 L 9.9375 -25.046875 L 9.9375 0 L 3.953125 0 L 3.953125 -36.5625 L 10.421875 -36.5625 L 23.25 -7.890625 L 36.03125 -36.5625 Z M 42.453125 -36.5625 "/></g></g></g><g fill="#dfe0e1" fill-opacity="1"><g transform="translate(120.964519, 517.894615)"><g><path d="M 25.984375 -7.46875 L 10.6875 -7.46875 L 8.046875 0 L 1.78125 0 L 14.890625 -36.609375 L 21.828125 -36.609375 L 34.9375 0 L 28.625 0 Z M 24.3125 -12.359375 L 18.359375 -29.359375 L 12.359375 -12.359375 Z M 24.3125 -12.359375 "/></g></g></g><g fill="#dfe0e1" fill-opacity="1"><g transform="translate(157.623988, 517.894615)"><g><path d="M 33.984375 0 L 27.984375 0 L 9.9375 -27.296875 L 9.9375 0 L 3.953125 0 L 3.953125 -36.609375 L 9.9375 -36.609375 L 27.984375 -9.359375 L 27.984375 -36.609375 L 33.984375 -36.609375 Z M 33.984375 0 "/></g></g></g><g fill="#dfe0e1" fill-opacity="1"><g transform="translate(195.545774, 517.894615)"><g><path d="M 25.984375 -7.46875 L 10.6875 -7.46875 L 8.046875 0 L 1.78125 0 L 14.890625 -36.609375 L 21.828125 -36.609375 L 34.9375 0 L 28.625 0 Z M 24.3125 -12.359375 L 18.359375 -29.359375 L 12.359375 -12.359375 Z M 24.3125 -12.359375 "/></g></g></g><g fill="#dfe0e1" fill-opacity="1"><g transform="translate(232.205242, 517.894615)"><g><path d="M 30.40625 -26.046875 C 29.457031 -27.867188 28.140625 -29.242188 26.453125 -30.171875 C 24.773438 -31.097656 22.832031 -31.5625 20.625 -31.5625 C 18.207031 -31.5625 16.050781 -31.015625 14.15625 -29.921875 C 12.257812 -28.835938 10.773438 -27.296875 9.703125 -25.296875 C 8.640625 -23.304688 8.109375 -20.992188 8.109375 -18.359375 C 8.109375 -15.734375 8.640625 -13.410156 9.703125 -11.390625 C 10.773438 -9.367188 12.257812 -7.816406 14.15625 -6.734375 C 16.050781 -5.648438 18.207031 -5.109375 20.625 -5.109375 C 23.882812 -5.109375 26.53125 -6.019531 28.5625 -7.84375 C 30.601562 -9.664062 31.847656 -12.132812 32.296875 -15.25 L 18.578125 -15.25 L 18.578125 -20.046875 L 38.71875 -20.046875 L 38.71875 -15.359375 C 38.332031 -12.515625 37.320312 -9.898438 35.6875 -7.515625 C 34.0625 -5.140625 31.941406 -3.238281 29.328125 -1.8125 C 26.710938 -0.394531 23.8125 0.3125 20.625 0.3125 C 17.1875 0.3125 14.046875 -0.484375 11.203125 -2.078125 C 8.359375 -3.671875 6.101562 -5.890625 4.4375 -8.734375 C 2.78125 -11.578125 1.953125 -14.785156 1.953125 -18.359375 C 1.953125 -21.941406 2.78125 -25.148438 4.4375 -27.984375 C 6.101562 -30.828125 8.363281 -33.046875 11.21875 -34.640625 C 14.082031 -36.234375 17.21875 -37.03125 20.625 -37.03125 C 24.519531 -37.03125 27.984375 -36.070312 31.015625 -34.15625 C 34.046875 -32.25 36.242188 -29.546875 37.609375 -26.046875 Z M 30.40625 -26.046875 "/></g></g></g><g fill="#dfe0e1" fill-opacity="1"><g transform="translate(272.86202, 517.894615)"><g><path d="M 9.9375 -31.71875 L 9.9375 -20.984375 L 22.5625 -20.984375 L 22.5625 -16.09375 L 9.9375 -16.09375 L 9.9375 -4.890625 L 24.140625 -4.890625 L 24.140625 0 L 3.953125 0 L 3.953125 -36.609375 L 24.140625 -36.609375 L 24.140625 -31.71875 Z M 9.9375 -31.71875 "/></g></g></g><g fill="#dfe0e1" fill-opacity="1"><g transform="translate(300.422385, 517.894615)"><g><path d="M 42.453125 -36.5625 L 42.453125 0 L 36.453125 0 L 36.453125 -25.046875 L 25.3125 0 L 21.15625 0 L 9.9375 -25.046875 L 9.9375 0 L 3.953125 0 L 3.953125 -36.5625 L 10.421875 -36.5625 L 23.25 -7.890625 L 36.03125 -36.5625 Z M 42.453125 -36.5625 "/></g></g></g><g fill="#dfe0e1" fill-opacity="1"><g transform="translate(346.812159, 517.894615)"><g><path d="M 9.9375 -31.71875 L 9.9375 -20.984375 L 22.5625 -20.984375 L 22.5625 -16.09375 L 9.9375 -16.09375 L 9.9375 -4.890625 L 24.140625 -4.890625 L 24.140625 0 L 3.953125 0 L 3.953125 -36.609375 L 24.140625 -36.609375 L 24.140625 -31.71875 Z M 9.9375 -31.71875 "/></g></g></g><g fill="#dfe0e1" fill-opacity="1"><g transform="translate(374.372524, 517.894615)"><g><path d="M 33.984375 0 L 27.984375 0 L 9.9375 -27.296875 L 9.9375 0 L 3.953125 0 L 3.953125 -36.609375 L 9.9375 -36.609375 L 27.984375 -9.359375 L 27.984375 -36.609375 L 33.984375 -36.609375 Z M 33.984375 0 "/></g></g></g><g fill="#dfe0e1" fill-opacity="1"><g transform="translate(412.29431, 517.894615)"><g><path d="M 27.5625 -36.5625 L 27.5625 -31.671875 L 17.828125 -31.671875 L 17.828125 0 L 11.84375 0 L 11.84375 -31.671875 L 2.046875 -31.671875 L 2.046875 -36.5625 Z M 27.5625 -36.5625 "/></g></g></g><g fill="#dfe0e1" fill-opacity="1"><g transform="translate(441.958509, 517.894615)"><g/></g></g><g fill="#dfe0e1" fill-opacity="1"><g transform="translate(455.633512, 517.894615)"><g><path d="M 16 0.375 C 13.539062 0.375 11.328125 -0.0507812 9.359375 -0.90625 C 7.398438 -1.769531 5.859375 -2.988281 4.734375 -4.5625 C 3.609375 -6.144531 3.046875 -7.988281 3.046875 -10.09375 L 9.46875 -10.09375 C 9.613281 -8.519531 10.238281 -7.222656 11.34375 -6.203125 C 12.445312 -5.191406 14 -4.6875 16 -4.6875 C 18.0625 -4.6875 19.671875 -5.1875 20.828125 -6.1875 C 21.984375 -7.1875 22.5625 -8.472656 22.5625 -10.046875 C 22.5625 -11.273438 22.203125 -12.273438 21.484375 -13.046875 C 20.765625 -13.816406 19.867188 -14.410156 18.796875 -14.828125 C 17.734375 -15.253906 16.253906 -15.710938 14.359375 -16.203125 C 11.972656 -16.835938 10.035156 -17.476562 8.546875 -18.125 C 7.054688 -18.769531 5.785156 -19.773438 4.734375 -21.140625 C 3.679688 -22.515625 3.15625 -24.34375 3.15625 -26.625 C 3.15625 -28.726562 3.679688 -30.566406 4.734375 -32.140625 C 5.785156 -33.722656 7.257812 -34.929688 9.15625 -35.765625 C 11.050781 -36.609375 13.242188 -37.03125 15.734375 -37.03125 C 19.273438 -37.03125 22.175781 -36.144531 24.4375 -34.375 C 26.695312 -32.601562 27.953125 -30.175781 28.203125 -27.09375 L 21.5625 -27.09375 C 21.457031 -28.425781 20.828125 -29.566406 19.671875 -30.515625 C 18.515625 -31.460938 16.988281 -31.9375 15.09375 -31.9375 C 13.375 -31.9375 11.972656 -31.492188 10.890625 -30.609375 C 9.804688 -29.734375 9.265625 -28.472656 9.265625 -26.828125 C 9.265625 -25.703125 9.601562 -24.78125 10.28125 -24.0625 C 10.96875 -23.34375 11.835938 -22.773438 12.890625 -22.359375 C 13.941406 -21.941406 15.378906 -21.484375 17.203125 -20.984375 C 19.617188 -20.316406 21.585938 -19.648438 23.109375 -18.984375 C 24.640625 -18.328125 25.941406 -17.304688 27.015625 -15.921875 C 28.085938 -14.535156 28.625 -12.679688 28.625 -10.359375 C 28.625 -8.503906 28.125 -6.75 27.125 -5.09375 C 26.125 -3.445312 24.664062 -2.125 22.75 -1.125 C 20.84375 -0.125 18.59375 0.375 16 0.375 Z M 16 0.375 "/></g></g></g><g fill="#dfe0e1" fill-opacity="1"><g transform="translate(487.401544, 517.894615)"><g><path d="M 20.625 0.375 C 17.21875 0.375 14.082031 -0.421875 11.21875 -2.015625 C 8.363281 -3.617188 6.101562 -5.847656 4.4375 -8.703125 C 2.78125 -11.566406 1.953125 -14.785156 1.953125 -18.359375 C 1.953125 -21.941406 2.78125 -25.148438 4.4375 -27.984375 C 6.101562 -30.828125 8.363281 -33.046875 11.21875 -34.640625 C 14.082031 -36.234375 17.21875 -37.03125 20.625 -37.03125 C 24.0625 -37.03125 27.207031 -36.234375 30.0625 -34.640625 C 32.925781 -33.046875 35.179688 -30.828125 36.828125 -27.984375 C 38.472656 -25.148438 39.296875 -21.941406 39.296875 -18.359375 C 39.296875 -14.785156 38.472656 -11.566406 36.828125 -8.703125 C 35.179688 -5.847656 32.925781 -3.617188 30.0625 -2.015625 C 27.207031 -0.421875 24.0625 0.375 20.625 0.375 Z M 20.625 -4.84375 C 23.039062 -4.84375 25.195312 -5.394531 27.09375 -6.5 C 28.988281 -7.601562 30.46875 -9.179688 31.53125 -11.234375 C 32.601562 -13.285156 33.140625 -15.660156 33.140625 -18.359375 C 33.140625 -21.054688 32.601562 -23.421875 31.53125 -25.453125 C 30.46875 -27.492188 28.988281 -29.054688 27.09375 -30.140625 C 25.195312 -31.234375 23.039062 -31.78125 20.625 -31.78125 C 18.207031 -31.78125 16.050781 -31.234375 14.15625 -30.140625 C 12.257812 -29.054688 10.773438 -27.492188 9.703125 -25.453125 C 8.640625 -23.421875 8.109375 -21.054688 8.109375 -18.359375 C 8.109375 -15.660156 8.640625 -13.285156 9.703125 -11.234375 C 10.773438 -9.179688 12.257812 -7.601562 14.15625 -6.5 C 16.050781 -5.394531 18.207031 -4.84375 20.625 -4.84375 Z M 20.625 -4.84375 "/></g></g></g><g fill="#dfe0e1" fill-opacity="1"><g transform="translate(528.636913, 517.894615)"><g><path d="M 25.46875 -36.5625 L 25.46875 -31.671875 L 9.9375 -31.671875 L 9.9375 -20.890625 L 22.046875 -20.890625 L 22.046875 -16 L 9.9375 -16 L 9.9375 0 L 3.953125 0 L 3.953125 -36.5625 Z M 25.46875 -36.5625 "/></g></g></g><g fill="#dfe0e1" fill-opacity="1"><g transform="translate(555.723909, 517.894615)"><g><path d="M 27.5625 -36.5625 L 27.5625 -31.671875 L 17.828125 -31.671875 L 17.828125 0 L 11.84375 0 L 11.84375 -31.671875 L 2.046875 -31.671875 L 2.046875 -36.5625 Z M 27.5625 -36.5625 "/></g></g></g><g fill="#dfe0e1" fill-opacity="1"><g transform="translate(585.388108, 517.894615)"><g><path d="M 51.5625 -36.5625 L 40.71875 0 L 33.9375 0 L 26.25 -27.671875 L 18.09375 0 L 11.359375 0.046875 L 1 -36.5625 L 7.359375 -36.5625 L 14.9375 -6.78125 L 23.140625 -36.5625 L 29.875 -36.5625 L 37.515625 -6.9375 L 45.140625 -36.5625 Z M 51.5625 -36.5625 "/></g></g></g><g fill="#dfe0e1" fill-opacity="1"><g transform="translate(637.931636, 517.894615)"><g><path d="M 25.984375 -7.46875 L 10.6875 -7.46875 L 8.046875 0 L 1.78125 0 L 14.890625 -36.609375 L 21.828125 -36.609375 L 34.9375 0 L 28.625 0 Z M 24.3125 -12.359375 L 18.359375 -29.359375 L 12.359375 -12.359375 Z M 24.3125 -12.359375 "/></g></g></g><g fill="#dfe0e1" fill-opacity="1"><g transform="translate(674.591105, 517.894615)"><g><path d="M 22.9375 0 L 14.515625 -14.625 L 9.9375 -14.625 L 9.9375 0 L 3.953125 0 L 3.953125 -36.5625 L 16.578125 -36.5625 C 19.378906 -36.5625 21.753906 -36.070312 23.703125 -35.09375 C 25.648438 -34.113281 27.101562 -32.796875 28.0625 -31.140625 C 29.03125 -29.492188 29.515625 -27.65625 29.515625 -25.625 C 29.515625 -23.238281 28.820312 -21.070312 27.4375 -19.125 C 26.050781 -17.175781 23.921875 -15.851562 21.046875 -15.15625 L 30.09375 0 Z M 9.9375 -19.40625 L 16.578125 -19.40625 C 18.816406 -19.40625 20.503906 -19.96875 21.640625 -21.09375 C 22.785156 -22.21875 23.359375 -23.726562 23.359375 -25.625 C 23.359375 -27.519531 22.796875 -29 21.671875 -30.0625 C 20.546875 -31.132812 18.847656 -31.671875 16.578125 -31.671875 L 9.9375 -31.671875 Z M 9.9375 -19.40625 "/></g></g></g><g fill="#dfe0e1" fill-opacity="1"><g transform="translate(707.831855, 517.894615)"><g><path d="M 9.9375 -31.71875 L 9.9375 -20.984375 L 22.5625 -20.984375 L 22.5625 -16.09375 L 9.9375 -16.09375 L 9.9375 -4.890625 L 24.140625 -4.890625 L 24.140625 0 L 3.953125 0 L 3.953125 -36.609375 L 24.140625 -36.609375 L 24.140625 -31.71875 Z M 9.9375 -31.71875 "/></g></g></g><g clip-path="url(#fd8f89270b)"><g clip-path="url(#94be3bd416)"><g clip-path="url(#d816d17b57)"><g clip-path="url(#f1cbc15af8)"><path fill="#02cdd1" d="M 547.941406 261.894531 L 551.886719 220.109375 C 551.96875 219.242188 551.152344 218.566406 550.3125 218.808594 L 509.996094 230.464844 C 509.042969 230.738281 508.789062 231.96875 509.550781 232.605469 L 520.574219 241.730469 C 521.097656 242.167969 521.171875 242.945312 520.734375 243.472656 L 478.617188 294.320312 C 478.183594 294.847656 477.40625 294.921875 476.878906 294.484375 L 453.550781 275.164062 C 453.023438 274.726562 452.246094 274.800781 451.8125 275.328125 L 385.371094 355.539062 C 384.9375 356.0625 385.011719 356.84375 385.535156 357.277344 L 396.058594 365.992188 C 396.582031 366.429688 397.363281 366.355469 397.796875 365.828125 L 453.945312 298.042969 C 454.378906 297.515625 455.160156 297.445312 455.683594 297.878906 L 479.011719 317.203125 C 479.539062 317.636719 480.316406 317.5625 480.753906 317.039062 L 533.160156 253.761719 C 533.597656 253.238281 534.375 253.164062 534.902344 253.601562 L 545.921875 262.726562 C 546.6875 263.363281 547.847656 262.882812 547.941406 261.894531 " fill-opacity="1" fill-rule="nonzero"/></g></g></g></g><path stroke-linecap="round" transform="matrix(-0.484014, 0.572914, -0.572914, -0.484014, 452.584973, 301.966294)" fill="none" stroke-linejoin="miter" d="M 11.002637 11.000797 L 240.988113 11.001058 " stroke="#02cdd1" stroke-width="22" stroke-opacity="1" stroke-miterlimit="4"/><g fill="#dfe0e1" fill-opacity="1"><g transform="translate(32.377084, 445.479314)"><g><path d="M 178.65625 -157.5 L 147.15625 0 L 128.703125 0 L 58.28125 -121.28125 L 34.203125 0 L 11.703125 0 L 43.203125 -157.5 L 61.65625 -157.5 L 132.078125 -36.21875 L 156.15625 -157.5 Z M 178.65625 -157.5 "/></g></g></g><g fill="#dfe0e1" fill-opacity="1"><g transform="translate(215.07676, 445.479314)"><g><path d="M 61.65625 -137.921875 L 51.96875 -89.546875 L 131.171875 -89.546875 L 127.34375 -70.421875 L 48.15625 -70.421875 L 38.03125 -19.578125 L 130.046875 -19.578125 L 126.21875 0 L 11.703125 0 L 43.203125 -157.5 L 154.34375 -157.5 L 150.53125 -137.921875 Z M 61.65625 -137.921875 "/></g></g></g><path stroke-linecap="round" transform="matrix(0.53033, 0.53033, -0.53033, 0.53033, 313.327517, 221.141685)" fill="none" stroke-linejoin="miter" d="M 11.000241 10.999094 L 379.130361 10.999094 " stroke="#dfe0e1" stroke-width="22" stroke-opacity="1" stroke-miterlimit="4"/><g fill="#02cdd1" fill-opacity="1"><g transform="translate(462.800572, 445.479314)"><g><path d="M 81.453125 1.796875 C 62.847656 1.796875 48.332031 -2.847656 37.90625 -12.140625 C 27.488281 -21.441406 22.28125 -34.34375 22.28125 -50.84375 C 22.28125 -55.800781 22.878906 -61.503906 24.078125 -67.953125 L 41.84375 -157.5 L 64.34375 -157.5 L 46.34375 -68.171875 C 45.300781 -63.078125 44.78125 -58.128906 44.78125 -53.328125 C 44.78125 -41.773438 48.078125 -33.035156 54.671875 -27.109375 C 61.273438 -21.179688 70.875 -18.21875 83.46875 -18.21875 C 97.570312 -18.21875 108.859375 -22.269531 117.328125 -30.375 C 125.804688 -38.476562 131.769531 -51.15625 135.21875 -68.40625 L 153 -157.5 L 175.046875 -157.5 L 157.046875 -66.828125 C 152.398438 -44.023438 143.738281 -26.882812 131.0625 -15.40625 C 118.382812 -3.9375 101.847656 1.796875 81.453125 1.796875 Z M 81.453125 1.796875 "/></g></g></g><g fill="#02cdd1" fill-opacity="1"><g transform="translate(640.775271, 445.479314)"><g><path d="M 60.296875 1.796875 C 48.597656 1.796875 37.3125 0 26.4375 -3.59375 C 15.5625 -7.195312 7.195312 -11.773438 1.34375 -17.328125 L 11.25 -35.328125 C 17.25 -29.773438 24.820312 -25.382812 33.96875 -22.15625 C 43.125 -18.9375 52.578125 -17.328125 62.328125 -17.328125 C 75.222656 -17.328125 85.53125 -19.6875 93.25 -24.40625 C 100.976562 -29.132812 104.84375 -35.695312 104.84375 -44.09375 C 104.84375 -48.59375 103.34375 -52.34375 100.34375 -55.34375 C 97.34375 -58.34375 93.664062 -60.742188 89.3125 -62.546875 C 84.96875 -64.347656 78.820312 -66.445312 70.875 -68.84375 C 60.820312 -71.84375 52.71875 -74.691406 46.5625 -77.390625 C 40.414062 -80.097656 35.128906 -84.113281 30.703125 -89.4375 C 26.285156 -94.757812 24.078125 -101.769531 24.078125 -110.46875 C 24.078125 -120.375 26.847656 -129 32.390625 -136.34375 C 37.941406 -143.695312 45.664062 -149.359375 55.5625 -153.328125 C 65.46875 -157.304688 76.796875 -159.296875 89.546875 -159.296875 C 99.296875 -159.296875 108.554688 -158.132812 117.328125 -155.8125 C 126.109375 -153.488281 133.722656 -150.226562 140.171875 -146.03125 L 131.171875 -127.578125 C 125.328125 -131.773438 118.765625 -134.921875 111.484375 -137.015625 C 104.210938 -139.117188 96.523438 -140.171875 88.421875 -140.171875 C 75.523438 -140.171875 65.25 -137.65625 57.59375 -132.625 C 49.945312 -127.601562 46.125 -120.894531 46.125 -112.5 C 46.125 -107.851562 47.660156 -103.953125 50.734375 -100.796875 C 53.804688 -97.648438 57.628906 -95.175781 62.203125 -93.375 C 66.785156 -91.570312 73.050781 -89.472656 81 -87.078125 C 90.894531 -84.078125 98.878906 -81.265625 104.953125 -78.640625 C 111.035156 -76.015625 116.210938 -72.148438 120.484375 -67.046875 C 124.765625 -61.953125 126.90625 -55.351562 126.90625 -47.25 C 126.90625 -37.195312 124.09375 -28.492188 118.46875 -21.140625 C 112.84375 -13.796875 105.003906 -8.132812 94.953125 -4.15625 C 84.898438 -0.1875 73.347656 1.796875 60.296875 1.796875 Z M 60.296875 1.796875 "/></g></g></g></svg>